<svg xmlns="http://www.w3.org/2000/svg" width="33" height="33" viewBox="0 0 33 33"><defs><style>.a{fill:#fff;}</style></defs><g transform="translate(0 -92.25)"><g transform="translate(0 92.25)"><path class="a" d="M28.54,106.77a7.37,7.37,0,0,0,1.606-4.854c0-3.28-1.685-5.934-3.768-5.934s-3.768,2.653-3.768,5.934a7.335,7.335,0,0,0,1.606,4.854,6.721,6.721,0,0,0-2.227,2.057,8.329,8.329,0,0,0-3.056-2.622,9.054,9.054,0,0,0,2.3-6.438c0-4.155-2.135-7.517-4.773-7.517s-4.773,3.373-4.773,7.517A9.026,9.026,0,0,0,14,106.2a8.393,8.393,0,0,0-3.023,2.591,6.74,6.74,0,0,0-2.2-2.016,7.37,7.37,0,0,0,1.606-4.854c0-3.28-1.685-5.934-3.768-5.934s-3.768,2.653-3.768,5.934a7.335,7.335,0,0,0,1.606,4.854C1.861,108.19,0,112.066,0,116.622v.679c0,.021.013.041.026.041H8.012c-.046.566-.072,1.152-.072,1.738v.7c0,3.023,1.554,5.471,3.474,5.471H21.534c1.92,0,3.474-2.447,3.474-5.471v-.7c0-.586-.026-1.172-.072-1.738h8.038c.013,0,.026-.021.026-.041v-.679C32.987,112.056,31.133,108.179,28.54,106.77Zm-4.884-4.864c0-2.365,1.221-4.288,2.723-4.288s2.723,1.923,2.723,4.288c0,2.334-1.195,4.237-2.671,4.288h-.1C24.845,106.153,23.656,104.251,23.656,101.906Zm-10.93-2.139c0-3.239,1.672-5.872,3.728-5.872s3.728,2.633,3.728,5.872c0,3.126-1.561,5.687-3.513,5.862h-.431C14.287,105.454,12.726,102.894,12.726,99.767Zm-8.854,2.139c0-2.365,1.221-4.288,2.723-4.288s2.723,1.923,2.723,4.288c0,2.334-1.195,4.237-2.671,4.288h-.1C5.067,106.153,3.872,104.251,3.872,101.906Zm4.323,13.78H1.058c.294-4.381,2.644-7.816,5.5-7.846h.078a4.592,4.592,0,0,1,3.559,2.088A16.894,16.894,0,0,0,8.194,115.686Zm15.756,4.093c0,2.108-1.09,3.825-2.429,3.825H11.4c-1.339,0-2.429-1.717-2.429-3.825v-.7c0-6.386,3.239-11.61,7.267-11.8a2.4,2.4,0,0,0,.444,0c4.029.185,7.267,5.409,7.267,11.8Zm.777-4.093a16.868,16.868,0,0,0-1.978-5.718,4.633,4.633,0,0,1,3.591-2.129h.078c2.853.031,5.2,3.466,5.5,7.846Z" transform="translate(0 -92.25)"/></g></g></svg>