<svg xmlns="http://www.w3.org/2000/svg" width="33" height="33" viewBox="0 0 33 33"><defs><style>.a{fill:#fff;}</style></defs><path class="a" d="M32.614,14.353l0,0L19.148.889a3.038,3.038,0,0,0-4.3,0L1.4,14.343l-.014.014A3.037,3.037,0,0,0,3.4,19.533c.031,0,.062,0,.094,0h.536v9.906A3.56,3.56,0,0,0,7.59,33h5.267a.967.967,0,0,0,.967-.967V24.266a1.624,1.624,0,0,1,1.623-1.622h3.107a1.624,1.624,0,0,1,1.622,1.622v7.767a.967.967,0,0,0,.967.967H26.41a3.56,3.56,0,0,0,3.556-3.555V19.538h.5a3.038,3.038,0,0,0,2.15-5.185ZM31.244,17.28a1.1,1.1,0,0,1-.781.324H29a.967.967,0,0,0-.967.967V29.444a1.624,1.624,0,0,1-1.622,1.622h-4.3v-6.8a3.56,3.56,0,0,0-3.556-3.556H15.447a3.56,3.56,0,0,0-3.556,3.556v6.8H7.59a1.624,1.624,0,0,1-1.622-1.622V18.571A.967.967,0,0,0,5,17.6H3.562l-.045,0a1.1,1.1,0,0,1-.761-1.884h0L16.219,2.256a1.1,1.1,0,0,1,1.562,0L31.24,15.714l.006.006a1.107,1.107,0,0,1,0,1.56Zm0,0" transform="translate(-0.5 0.001)"/></svg>