<svg width="481" height="416" viewBox="0 0 481 416" fill="none" xmlns="http://www.w3.org/2000/svg">
<g id="Login" clip-path="url(#clip0)" filter="url(#filter0_d)">
<g id="Coin">
<path id="Vector" d="M228.871 56.029C217.254 56.0338 206.095 60.8745 197.755 69.5265C189.415 78.1785 184.549 89.9628 184.188 102.385C184.175 102.87 184.169 103.362 184.169 103.854C184.169 113.313 186.79 122.56 191.702 130.424C196.614 138.289 203.596 144.419 211.764 148.039C219.932 151.659 228.921 152.606 237.592 150.76C246.263 148.915 254.229 144.36 260.48 137.672C266.732 130.983 270.99 122.462 272.714 113.184C274.439 103.907 273.554 94.2911 270.171 85.5522C266.787 76.8133 261.058 69.3441 253.706 64.089C246.355 58.8339 237.712 56.029 228.871 56.029ZM228.871 150.313C217.358 150.3 206.319 145.401 198.178 136.691C190.037 127.981 185.458 116.172 185.446 103.854C185.446 103.219 185.458 102.59 185.484 101.968C185.83 92.8679 188.668 84.0768 193.647 76.6884C198.625 69.2999 205.524 63.6401 213.485 60.4126C221.446 57.1852 230.118 56.5325 238.423 58.5357C246.728 60.539 254.299 65.1098 260.195 71.6797C266.092 78.2497 270.053 86.529 271.586 95.4882C273.119 104.447 272.157 113.691 268.819 122.07C265.482 130.449 259.915 137.593 252.813 142.615C245.71 147.636 237.384 150.313 228.871 150.313Z" fill="#3F3D56"/>
<path id="Vector_2" d="M266.549 103.854C266.549 114.545 262.579 124.798 255.513 132.357C248.447 139.917 238.864 144.164 228.871 144.164C218.878 144.164 209.295 139.917 202.229 132.357C195.163 124.798 191.193 114.545 191.193 103.854C191.193 102.577 191.251 101.319 191.359 100.076C192.267 89.7582 196.854 80.2109 204.169 73.4166C211.483 66.6222 220.963 63.1027 230.639 63.5889C240.315 64.0751 249.444 68.5297 256.131 76.0276C262.818 83.5255 266.549 93.4908 266.549 103.854Z" fill="#E6E6E6"/>
<path id="Vector_3" d="M240.091 106.532C239.178 105.248 237.977 104.23 236.598 103.574C234.898 102.807 233.142 102.191 231.349 101.729V90.7569C234.106 91.2016 236.692 92.463 238.814 94.3984L240.896 89.65C239.699 88.5088 238.324 87.6001 236.834 86.965C235.183 86.2497 233.45 85.7741 231.681 85.5507V79.9893H226.859V85.6054C224.998 85.8291 223.202 86.4743 221.591 87.4979C220.136 88.4193 218.911 89.7039 218.021 91.2419C217.172 92.7429 216.731 94.4681 216.75 96.2226C216.667 98.1239 217.182 100 218.213 101.552C219.161 102.895 220.414 103.958 221.853 104.64C223.58 105.429 225.366 106.062 227.191 106.532V117.047C223.938 116.784 220.837 115.461 218.308 113.255L216.227 118.01C217.641 119.261 219.249 120.237 220.978 120.894C222.872 121.619 224.852 122.06 226.859 122.205V127.719H231.681V122.103C234.359 121.79 236.87 120.558 238.84 118.591C239.707 117.701 240.392 116.628 240.851 115.441C241.311 114.253 241.535 112.976 241.509 111.691C241.589 109.85 241.09 108.034 240.091 106.532ZM227.192 100.568C226.017 100.187 224.925 99.5598 223.979 98.7232C223.604 98.3664 223.308 97.9253 223.112 97.4316C222.915 96.9378 222.823 96.4036 222.843 95.8673C222.808 94.6504 223.226 93.4685 224.005 92.581C224.868 91.65 225.983 91.0312 227.192 90.8115V100.568ZM234.376 115.107C233.561 116.001 232.5 116.592 231.349 116.794V107.748C232.449 108.064 233.479 108.615 234.376 109.368C234.716 109.678 234.986 110.067 235.166 110.504C235.346 110.942 235.432 111.418 235.417 111.896C235.461 113.068 235.089 114.215 234.376 115.107Z" fill="#8D81DB"/>
</g>
<g id="All">
<path id="Vector_4" d="M273.457 366.948C270.187 362.048 265.759 358.463 260.193 357.121C255.339 355.951 250.348 356.151 245.414 356.191L183.027 356.706C177.684 356.75 172.561 361.702 172.809 367.637C173.056 373.522 177.3 378.616 183.027 378.569C201.302 378.418 219.577 378.267 237.852 378.117C242.161 378.081 246.472 377.998 250.78 378.013C251.748 378.016 252.711 378.071 253.678 378.083C253.912 378.086 254.081 378.083 254.201 378.078C254.231 378.088 254.256 378.097 254.295 378.108C254.799 378.256 255.316 378.358 255.824 378.499C255.646 378.505 256.153 378.843 256.407 378.957C256.442 379.031 256.516 379.162 256.641 379.364C256.815 379.713 257.329 380.771 257.35 380.737C258.122 382.827 258.76 384.971 259.257 387.155C260.445 391.969 260.706 392.976 260.877 397.493C261.093 403.199 265.422 408.696 271.094 408.425C276.445 408.168 281.544 403.613 281.312 397.493C280.922 387.18 279.23 375.596 273.457 366.948Z" fill="#E6E6E6"/>
<path id="Vector_5" d="M186.694 391.616C185.523 384.019 184.373 376.417 183.179 368.824C181.967 361.121 179.491 354.068 173.888 349.013C172.391 347.662 170.839 346.401 169.28 345.144C168.732 344.702 168.185 344.259 167.643 343.808C167.611 343.781 167.59 343.764 167.562 343.74C167.503 343.685 167.431 343.62 167.335 343.533C165 341.419 162.744 339.211 160.594 336.863C158.686 334.778 156.86 332.604 155.118 330.342C154.683 329.777 154.253 329.206 153.829 328.631C153.756 328.532 153.363 327.989 153.105 327.635C152.864 327.28 152.424 326.639 152.35 326.527C151.855 325.778 151.368 325.021 150.89 324.258C147.636 319.041 144.818 313.528 142.469 307.782C142.236 307.212 142.008 306.638 141.787 306.062C141.727 305.886 141.65 305.66 141.548 305.359C141.074 303.966 140.602 302.575 140.169 301.166C139.25 298.173 138.459 295.136 137.797 292.055C137.47 290.533 137.176 289.004 136.914 287.467C136.779 286.677 136.653 285.885 136.535 285.091C136.516 284.959 136.401 284.103 136.333 283.619C136.284 283.133 136.191 282.272 136.178 282.139C136.103 281.339 136.037 280.538 135.979 279.737C135.848 277.933 135.76 276.126 135.714 274.316C135.635 271.1 135.689 267.884 135.875 264.668C135.981 262.861 136.132 261.059 136.318 259.26C136.329 259.15 136.338 259.062 136.346 258.983C136.357 258.902 136.371 258.811 136.386 258.698C136.524 257.703 136.668 256.711 136.83 255.721C137.443 251.964 138.24 248.243 139.218 244.576C139.681 242.841 140.184 241.12 140.727 239.414C140.969 238.656 141.219 237.901 141.476 237.15C141.459 237.198 142.231 235.089 142.241 235.018C145.303 227.278 150.312 220.222 150.319 211.429C150.323 205.476 145.616 199.774 140.101 200.049C137.351 200.159 134.749 201.408 132.843 203.531C130.937 205.654 129.876 208.486 129.883 211.429C129.883 211.563 129.883 211.677 129.882 211.788C129.831 211.973 129.788 212.128 129.749 212.264C129.152 213.653 128.42 214.972 127.765 216.326C125.97 220.031 124.438 223.858 122.983 227.741C120.601 234.065 118.777 240.613 117.536 247.3C114.839 261.953 114.63 277.005 116.918 291.737C120.88 317.571 133.944 342.301 152.107 358.924C153.683 360.367 155.298 361.761 156.928 363.126C157.602 363.692 158.282 364.246 158.966 364.797C159.289 365.058 160.627 366.187 160.039 365.64C161.305 366.796 161.837 367.378 162.163 368.229C162.21 368.426 162.274 368.692 162.361 369.056C162.59 370.016 162.808 370.974 162.989 371.948C164.57 380.455 165.669 389.105 166.989 397.667C167.897 403.55 174.666 407.379 179.558 405.615C185.252 403.563 187.667 397.919 186.694 391.616Z" fill="#E6E6E6"/>
<path id="Vector_6" d="M274.491 413.681C270.2 413.693 266.079 411.883 263.034 408.649C259.988 405.415 258.266 401.02 258.245 396.429V383.96C246.042 385.421 204.255 385.083 192.277 383.024V395.931C192.245 400.518 190.519 404.905 187.476 408.137C184.432 411.369 180.318 413.182 176.031 413.182C171.743 413.182 167.629 411.369 164.586 408.137C161.542 404.905 159.816 400.518 159.784 395.931V370.589C143.561 360.947 130.036 346.847 120.607 329.746C111.177 312.645 106.183 293.162 106.141 273.307C106.141 239.262 120.563 207.503 145.709 186.174C162.058 172.259 181.922 163.89 202.75 162.143C205.578 161.906 208.422 161.785 211.205 161.785C221.009 161.785 265.243 163.406 276.341 166.822L301.648 139.957C302.02 139.556 302.495 139.284 303.013 139.173C303.53 139.063 304.067 139.12 304.554 139.337C305.044 139.546 305.465 139.909 305.759 140.378C306.054 140.847 306.209 141.4 306.204 141.965V146.237L311.132 141.015C311.503 140.615 311.978 140.342 312.495 140.231C313.012 140.121 313.548 140.178 314.035 140.395C314.526 140.604 314.947 140.967 315.242 141.436C315.537 141.905 315.692 142.459 315.687 143.024V190.757C328.386 203.004 338.064 218.414 343.865 235.621C349.666 252.827 351.41 271.298 348.942 289.398C346.474 307.498 339.872 324.667 329.719 339.384C319.566 354.101 306.176 365.911 290.737 373.767V396.429C290.716 401.02 288.994 405.415 285.948 408.649C282.902 411.883 278.782 413.693 274.491 413.681ZM259.522 382.41V396.429C259.554 400.654 261.145 404.694 263.949 407.669C266.753 410.644 270.542 412.314 274.491 412.314C278.44 412.314 282.229 410.644 285.032 407.669C287.836 404.694 289.427 400.654 289.46 396.429V372.904L289.824 372.719C307.148 363.924 321.855 350.165 332.311 332.969C345.636 311.025 351.177 284.703 347.932 258.766C344.688 232.83 332.872 208.993 314.622 191.57L314.41 191.366V143.024C314.415 142.73 314.335 142.442 314.182 142.198C314.029 141.955 313.809 141.767 313.553 141.661C313.299 141.544 313.018 141.513 312.746 141.571C312.475 141.628 312.226 141.772 312.033 141.984L304.927 149.513V141.965C304.931 141.671 304.852 141.383 304.698 141.14C304.545 140.896 304.326 140.708 304.07 140.602C303.815 140.486 303.533 140.454 303.261 140.513C302.989 140.571 302.74 140.715 302.547 140.927L276.698 168.368L276.331 168.245C266.014 164.79 221.083 163.152 211.205 163.152C208.455 163.152 205.644 163.271 202.851 163.505C182.276 165.231 162.653 173.498 146.502 187.244C121.664 208.313 107.418 239.682 107.418 273.307C107.461 292.986 112.428 312.295 121.803 329.226C131.178 346.157 144.62 360.094 160.732 369.589L161.061 369.784V395.931C161.094 400.155 162.686 404.194 165.49 407.169C168.293 410.143 172.082 411.812 176.031 411.812C179.979 411.812 183.768 410.143 186.571 407.169C189.375 404.194 190.967 400.155 191 395.931V381.388L191.756 381.54C202.52 383.707 247.846 384.048 258.8 382.511L259.522 382.41Z" fill="#3F3D56"/>
<path id="Vector_7" d="M187.915 87.3831L117.196 110.121C114.946 110.847 113.058 112.498 111.947 114.713C110.835 116.927 110.59 119.523 111.266 121.93C111.942 124.338 113.484 126.359 115.553 127.551C117.621 128.743 120.047 129.008 122.298 128.287L184.185 108.385L185.482 107.968C185.744 100.821 187.557 93.8367 190.776 87.5675C190.372 87.3731 189.94 87.253 189.499 87.2123C188.965 87.157 188.427 87.2151 187.915 87.3831Z" fill="#FFBBAB"/>
<path id="Vector_8" d="M121.075 133.135C120.136 133.132 119.222 132.814 118.461 132.226C117.701 131.637 117.132 130.808 116.836 129.855L112.414 115.578C112.229 114.982 112.156 114.353 112.199 113.726C112.241 113.1 112.399 112.488 112.663 111.927C112.926 111.366 113.29 110.866 113.735 110.455C114.179 110.044 114.694 109.731 115.252 109.534L172.81 89.1261C173.367 88.9285 173.955 88.8502 174.541 88.8958C175.126 88.9414 175.698 89.1099 176.222 89.3917C176.747 89.6735 177.214 90.0631 177.598 90.5382C177.982 91.0134 178.275 91.5648 178.459 92.1609L182.882 106.437C183.25 107.612 183.176 108.893 182.676 110.01C182.176 111.127 181.29 111.992 180.204 112.422C180.151 112.443 180.097 112.463 180.043 112.482L122.486 132.889C122.031 133.052 121.555 133.134 121.075 133.135Z" fill="#2F2E41"/>
<path id="Vector_9" d="M123.128 190.996C122.141 190.994 121.181 190.644 120.399 190C119.617 189.355 119.055 188.453 118.801 187.432L116.394 177.683C116.092 176.457 116.257 175.154 116.853 174.059C117.449 172.964 118.426 172.166 119.571 171.84L195.527 150.367C196.673 150.047 197.891 150.226 198.914 150.864C199.938 151.502 200.683 152.548 200.988 153.773L203.027 162.033L202.645 162.065C183.165 163.685 164.526 171.242 148.934 183.84L148.823 183.897L124.262 190.838C123.892 190.943 123.511 190.996 123.128 190.996Z" fill="#2F2E41"/>
<path id="Vector_10" d="M110.548 239.153C101.638 237.745 93.1163 234.298 85.5642 229.047C81.8227 226.447 78.3591 223.417 75.2354 220.009C72.1523 216.645 69.2028 212.821 67.6757 208.34C66.2064 204.195 66.2822 199.604 67.8873 195.517C69.4704 191.455 72.4947 188.23 76.2969 186.549C80.1219 184.917 84.7432 184.743 88.4658 186.53C90.2397 187.362 91.7747 188.684 92.9133 190.36C93.4425 191.133 93.8344 192.003 94.0694 192.928C94.2874 193.765 94.3072 194.648 94.1271 195.496C93.9088 196.342 93.5238 197.129 92.998 197.804C92.4722 198.478 91.8177 199.024 91.0784 199.406C89.4514 200.299 87.6884 200.874 85.8724 201.105C84.0459 201.371 81.4222 201.613 79.9538 200.045C79.6516 199.735 79.4138 199.36 79.2561 198.944C79.1457 198.626 79.108 198.285 79.146 197.948C79.1246 198.097 79.2346 197.625 79.2283 197.644C79.2051 197.714 79.1045 197.884 79.2475 197.623C79.2921 197.537 79.3419 197.454 79.3964 197.375C79.3478 197.442 79.2412 197.554 79.4316 197.362C79.5889 197.178 79.7911 197.044 80.0154 196.976C80.1038 196.949 80.1935 196.927 80.2821 196.901C80.5074 196.835 80.0576 196.904 80.2881 196.896C80.377 196.893 80.467 196.896 80.5556 196.892C80.7817 196.881 80.3326 196.826 80.5493 196.884C80.6334 196.906 80.7167 196.929 80.7996 196.956C80.9797 197.017 80.672 196.815 80.7941 196.966C80.9372 197.144 80.6439 196.794 80.8065 196.966C80.8874 197.051 80.9637 197.141 81.0349 197.235C81.3169 197.533 81.6972 197.7 82.0934 197.7C82.4896 197.7 82.8699 197.533 83.1519 197.235C83.4243 196.93 83.5763 196.524 83.5763 196.103C83.5763 195.681 83.4243 195.275 83.1519 194.97C81.6758 193.012 78.7602 193.496 77.267 195.151C75.3626 197.261 76.1167 200.605 77.9691 202.446C80.0661 204.53 83.0361 204.675 85.7335 204.326C88.0132 204.092 90.2347 203.42 92.2915 202.343C94.3351 201.269 95.9335 199.421 96.7771 197.159C97.1579 195.951 97.2947 194.671 97.1784 193.402C97.0621 192.134 96.6953 190.907 96.1024 189.801C93.7209 185.011 88.7894 182.555 83.915 182.13C81.4054 181.919 78.8818 182.244 76.4901 183.084C74.0984 183.924 71.8862 185.263 69.9814 187.023C66.3101 190.56 64.0493 195.47 63.6667 200.739C63.2412 206.202 65.2224 211.507 68.1109 215.916C71.1349 220.396 74.7434 224.388 78.8264 227.772C86.8086 234.59 96.1717 239.314 106.166 241.567C107.355 241.83 108.55 242.055 109.752 242.242C110.134 242.341 110.538 242.28 110.88 242.073C111.222 241.865 111.477 241.525 111.593 241.123C111.696 240.714 111.644 240.277 111.448 239.909C111.253 239.54 110.929 239.269 110.548 239.153L110.548 239.153Z" fill="#3F3D56"/>
<path id="Vector_11" d="M253.203 169.55C240.149 169.353 227.135 169.707 214.163 170.613C209.729 170.923 205.893 172.599 205.893 175.417C205.893 177.773 209.699 180.534 214.163 180.222C227.129 179.316 240.142 178.962 253.203 179.158C263.851 179.319 263.845 169.71 253.203 169.55Z" fill="#CCCCCC"/>
<path id="Vector_12" d="M233.908 178.683C232.498 178.683 199.356 178.626 199.356 173.729C199.356 168.831 232.498 168.775 233.908 168.775C235.319 168.775 268.461 168.831 268.461 173.729C268.461 178.626 235.319 178.683 233.908 178.683ZM200.652 173.729C201.559 175.213 213.741 177.316 233.908 177.316C254.076 177.316 266.258 175.213 267.165 173.729C266.258 172.244 254.076 170.141 233.908 170.141C213.741 170.141 201.559 172.244 200.652 173.729V173.729Z" fill="#3F3D56"/>
<path id="Vector_13" d="M339.057 307.435C346.394 307.217 355.525 306.945 362.559 301.447C364.653 299.743 366.374 297.57 367.601 295.079C368.828 292.588 369.531 289.841 369.66 287.029C369.804 282.687 368.338 278.898 365.532 276.361C361.858 273.04 356.493 272.261 350.712 274.079L356.702 227.245L352.304 226.601L345.262 281.659L348.934 279.856C353.192 277.767 359.036 276.704 362.667 279.987C363.559 280.846 364.253 281.913 364.697 283.105C365.141 284.297 365.321 285.583 365.225 286.862C365.117 288.955 364.59 290.998 363.678 292.853C362.766 294.708 361.491 296.331 359.941 297.612C354.467 301.89 347.189 302.442 338.934 302.689L339.057 307.435Z" fill="#3F3D56"/>
<path id="Vector_14" d="M326.9 231.284H302.995V236.033H326.9V231.284Z" fill="#3F3D56"/>
<path id="Vector_15" d="M133.945 212.835C132.881 212.832 131.853 212.423 131.045 211.682C130.237 210.941 129.702 209.917 129.536 208.792L128.077 198.83C127.894 197.577 128.184 196.298 128.882 195.273C129.581 194.249 130.63 193.562 131.801 193.365L209.412 180.355C210.583 180.16 211.779 180.47 212.736 181.217C213.694 181.964 214.335 183.087 214.52 184.339L215.979 194.302C216.161 195.555 215.872 196.834 215.174 197.858C214.475 198.883 213.426 199.569 212.255 199.767L134.644 212.777C134.413 212.816 134.179 212.835 133.945 212.835Z" fill="#2F2E41"/>
<path id="Vector_16" d="M101.826 96.0853C119.813 96.0853 134.394 80.4851 134.394 61.2413C134.394 41.9974 119.813 26.3972 101.826 26.3972C83.8382 26.3972 69.2566 41.9974 69.2566 61.2413C69.2566 80.4851 83.8382 96.0853 101.826 96.0853Z" fill="#FFBBAB"/>
<path id="Vector_17" d="M120.265 70.257C121.306 69.8675 122.257 69.244 123.054 68.4286C123.581 67.8472 123.984 67.1495 124.232 66.3844C124.481 65.6193 124.57 64.8052 124.494 63.9993C124.45 63.4248 124.282 62.8692 124.004 62.3756C123.725 61.8821 123.344 61.4641 122.89 61.1543C121.711 60.3788 120.154 60.4081 118.581 61.188L118.4 47.5866L117.123 47.606L117.336 63.5959L118.308 62.9137C119.435 62.124 121.055 61.5514 122.221 62.3183C122.509 62.5213 122.749 62.7927 122.924 63.1114C123.098 63.4301 123.201 63.7875 123.225 64.1558C123.279 64.7562 123.211 65.362 123.026 65.9318C122.842 66.5017 122.544 67.0223 122.155 67.4582C120.77 68.9279 118.721 69.4204 116.382 69.8708L116.608 71.2154C117.852 71.0134 119.076 70.6927 120.265 70.257Z" fill="#2F2E41"/>
<path id="Vector_18" d="M131.551 46.6319L124.75 47.7339L124.941 49.0847L131.742 47.9828L131.551 46.6319Z" fill="#2F2E41"/>
<path id="Vector_19" d="M110.083 50.1094L103.282 51.2114L103.473 52.5622L110.274 51.4603L110.083 50.1094Z" fill="#2F2E41"/>
<path id="Vector_20" d="M123.348 212.226C122.177 212.223 121.034 211.839 120.072 211.125C119.11 210.41 118.374 209.399 117.962 208.226L95.5068 143.888C92.7622 135.998 93.0553 127.264 96.3218 119.605C99.5883 111.945 105.561 105.984 112.931 103.03L131.19 95.7361C131.896 95.4521 132.647 95.3204 133.401 95.3483C134.155 95.3763 134.896 95.5636 135.582 95.8992C136.266 96.2263 136.883 96.696 137.395 97.2809C137.908 97.8658 138.306 98.5541 138.568 99.3056L180.164 183.33C180.434 184.088 180.562 184.895 180.539 185.706C180.516 186.516 180.344 187.314 180.032 188.053C179.72 188.792 179.274 189.458 178.721 190.012C178.168 190.566 177.517 190.998 176.807 191.282L125.357 211.836C124.715 212.093 124.034 212.226 123.348 212.226Z" fill="#2F2E41"/>
<path id="Vector_21" d="M125.65 97.9489L166.922 156.996L138.995 98.5687C138.764 97.887 138.41 97.2605 137.953 96.7252C137.496 96.1898 136.945 95.756 136.332 95.4486C135.718 95.1411 135.054 94.966 134.377 94.9333C133.7 94.9005 133.023 95.0108 132.386 95.2578L125.65 97.9489Z" fill="#E6E6E6"/>
<path id="Vector_22" d="M191 142.792L117.308 137.714C116.146 137.633 115.01 137.309 113.966 136.76C112.921 136.21 111.988 135.446 111.22 134.511C110.451 133.576 109.863 132.487 109.487 131.309C109.112 130.13 108.957 128.884 109.032 127.641C109.107 126.398 109.41 125.183 109.923 124.066C110.437 122.949 111.151 121.95 112.026 121.128C112.9 120.306 113.917 119.676 115.019 119.274C116.12 118.873 117.285 118.707 118.447 118.787L192.139 123.865C192.683 123.903 193.215 124.055 193.704 124.312C194.193 124.569 194.63 124.927 194.99 125.365C195.35 125.803 195.626 126.313 195.802 126.865C195.977 127.417 196.05 128 196.015 128.582L195.409 138.646C195.338 139.821 194.834 140.918 194.007 141.696C193.18 142.473 192.098 142.868 191 142.792Z" fill="#FFBBAB"/>
<path id="Vector_23" d="M171.308 146.048C171.211 146.048 171.113 146.044 171.015 146.038H171.015L110.503 141.868C109.918 141.827 109.345 141.664 108.818 141.387C108.291 141.11 107.821 140.724 107.433 140.253C107.045 139.781 106.749 139.232 106.559 138.638C106.37 138.043 106.292 137.415 106.33 136.788L107.364 119.599C107.402 118.973 107.555 118.36 107.814 117.796C108.073 117.233 108.433 116.729 108.874 116.315C109.315 115.9 109.828 115.582 110.384 115.38C110.94 115.177 111.527 115.094 112.113 115.134L172.625 119.304C173.807 119.387 174.911 119.968 175.693 120.921C176.476 121.873 176.873 123.118 176.798 124.384L175.764 141.573C175.707 142.494 175.403 143.378 174.888 144.118C174.373 144.859 173.669 145.424 172.861 145.748C172.364 145.946 171.838 146.048 171.308 146.048Z" fill="#2F2E41"/>
<path id="Vector_24" d="M101.452 38.0705C105.737 34.1281 111.62 37.6549 116.534 37.0375C121.235 36.4468 124.947 31.9355 125.895 27.1429C127.001 21.5514 124.289 15.9496 120.29 12.4635C115.911 8.64525 110.103 7.54913 104.599 8.25553C98.2914 9.06514 92.5226 12.2109 87.3462 16.0159C82.3497 19.5748 77.7548 23.7404 73.6534 28.4294C69.9807 32.7689 66.869 37.9416 65.8753 43.7811C64.9723 49.088 65.6618 54.9687 68.5942 59.4644C70.1491 61.7686 72.2329 63.6053 74.6445 64.7971C77.1589 66.1181 79.8412 67.0624 82.2772 68.556C85.9605 70.8142 89.5404 75.4966 88.3866 80.3694C88.1392 81.4339 87.6511 82.4169 86.9651 83.2321C86.1408 84.211 84.6541 82.9174 85.4805 81.936C86.932 80.2122 86.8748 77.9132 86.1013 75.8552C85.1815 73.5361 83.5528 71.6199 81.4819 70.4207C78.932 68.8609 76.1167 67.8982 73.5032 66.4775C71.0016 65.1796 68.8302 63.2544 67.1737 60.8656C64.0457 56.215 63.11 50.1625 63.8194 44.5634C64.5871 38.5043 67.4969 32.9984 71.1446 28.3845C75.1144 23.3633 79.9906 19.1129 84.972 15.2945C90.3172 11.1974 96.2226 7.73352 102.757 6.4807C108.422 5.3947 114.562 6.06331 119.515 9.36587C124.139 12.4486 127.684 17.7515 128.037 23.677C128.164 26.3731 127.616 29.0566 126.452 31.4513C125.287 33.846 123.547 35.8654 121.411 37.3018C119.219 38.7052 116.67 39.3369 114.124 39.1077C111.403 38.9213 108.679 38.0298 105.94 38.2773C104.7 38.3578 103.519 38.8683 102.576 39.7315C101.639 40.5929 100.524 38.9248 101.452 38.0706V38.0705Z" fill="#2F2E41"/>
</g>
</g>
<defs>
<filter id="filter0_d" x="0" y="0" width="481" height="416" filterUnits="userSpaceOnUse" color-interpolation-filters="sRGB">
<feFlood flood-opacity="0" result="BackgroundImageFix"/>
<feColorMatrix in="SourceAlpha" type="matrix" values="0 0 0 0 0 0 0 0 0 0 0 0 0 0 0 0 0 0 127 0"/>
<feOffset dy="4"/>
<feGaussianBlur stdDeviation="2"/>
<feColorMatrix type="matrix" values="0 0 0 0 0 0 0 0 0 0 0 0 0 0 0 0 0 0 0.25 0"/>
<feBlend mode="normal" in2="BackgroundImageFix" result="effect1_dropShadow"/>
<feBlend mode="normal" in="SourceGraphic" in2="effect1_dropShadow" result="shape"/>
</filter>
<clipPath id="clip0">
<rect width="473" height="408" fill="white" transform="translate(4)"/>
</clipPath>
</defs>
</svg>
