<svg xmlns="http://www.w3.org/2000/svg" width="38" height="41" viewBox="0 0 38 41"><defs><style>.a{fill:#fff;}</style></defs><g transform="translate(-17.219)"><g transform="translate(17.219)"><path class="a" d="M35.97,38.651H25.017a5.336,5.336,0,0,1-5.392-5.264V7.614a5.336,5.336,0,0,1,5.392-5.264H36.149a1.184,1.184,0,0,0,1.2-1.175A1.184,1.184,0,0,0,36.149,0H25.017a7.716,7.716,0,0,0-7.8,7.614V33.386A7.716,7.716,0,0,0,25.017,41H35.97a1.175,1.175,0,1,0,0-2.349Z" transform="translate(-17.219)"/><path class="a" d="M149.885,144.326l-7.647-7.647a1.2,1.2,0,0,0-1.7,1.7l5.6,5.6H121.722a1.2,1.2,0,0,0,0,2.406h24.411l-5.6,5.6a1.208,1.208,0,0,0,.847,2.059,1.174,1.174,0,0,0,.847-.357l7.647-7.647A1.2,1.2,0,0,0,149.885,144.326Z" transform="translate(-112.238 -124.673)"/></g></g></svg>