<svg xmlns="http://www.w3.org/2000/svg" width="45.419" height="49" viewBox="0 0 45.419 49">
  <g id="logout" transform="translate(-17.219)">
    <g id="Group_5" data-name="Group 5" transform="translate(17.219)">
      <path id="Path_3" data-name="Path 3" d="M39.1,46.192H26.318A6.3,6.3,0,0,1,20.027,39.9V9.1a6.3,6.3,0,0,1,6.291-6.291H39.306a1.4,1.4,0,0,0,0-2.808H26.318a9.109,9.109,0,0,0-9.1,9.1V39.9a9.109,9.109,0,0,0,9.1,9.1H39.1a1.4,1.4,0,1,0,0-2.808Z" transform="translate(-17.219)" fill="#636363"/>
      <path id="Path_4" data-name="Path 4" d="M154.784,145.661l-8.922-8.922a1.4,1.4,0,0,0-1.986,1.986l6.531,6.531H121.923a1.4,1.4,0,0,0,0,2.808h28.483l-6.531,6.531a1.409,1.409,0,0,0,.988,2.4,1.37,1.37,0,0,0,.988-.416l8.922-8.922A1.4,1.4,0,0,0,154.784,145.661Z" transform="translate(-109.777 -122.149)" fill="#636363"/>
    </g>
  </g>
</svg>
