<svg xmlns="http://www.w3.org/2000/svg" width="135.403" height="135.425" viewBox="0 0 135.403 135.425">
  <g id="profits" transform="translate(-0.042)">
    <g id="Group_2" data-name="Group 2" transform="translate(9.138 7.246)">
      <g id="Group_1" data-name="Group 1">
        <path id="Path_1" data-name="Path 1" d="M122.41,43.543l-5.343-14.837a1.983,1.983,0,0,0-3.076-.9l-12.053,9.281a1.983,1.983,0,0,0,2.42,3.143l7.567-5.827a98.434,98.434,0,0,1-43.739,54.29A103.154,103.154,0,0,1,36.1,101.316a1.983,1.983,0,1,0,.637,3.915c.636-.1,15.771-2.647,33.338-13.044A104.2,104.2,0,0,0,96.816,69.7a102.571,102.571,0,0,0,18.711-33.563l3.15,8.748a1.983,1.983,0,1,0,3.732-1.344Z" transform="translate(-34.433 -27.395)" fill="#fff"/>
      </g>
    </g>
    <g id="Group_4" data-name="Group 4" transform="translate(0.042)">
      <g id="Group_3" data-name="Group 3" transform="translate(0)">
        <path id="Path_2" data-name="Path 2" d="M133.462,131.458h-7.387V58.7a1.984,1.984,0,0,0-3.967,0v72.759H104.394V20.519h17.714V44.858a1.984,1.984,0,1,0,3.967,0v-25a3.309,3.309,0,0,0-3.306-3.306H103.733a3.309,3.309,0,0,0-3.306,3.306v111.6h-4.69V69.177a3.309,3.309,0,0,0-3.306-3.306H73.395a3.309,3.309,0,0,0-3.306,3.306v62.281H65.4V83.325a3.309,3.309,0,0,0-3.306-3.306H43.057a3.309,3.309,0,0,0-3.306,3.306v48.133h-4.69V103.822a3.309,3.309,0,0,0-3.306-3.306H12.718a3.309,3.309,0,0,0-3.306,3.306v6.358a1.984,1.984,0,1,0,3.967,0v-5.7H31.093v26.975H13.379v-7.129a1.984,1.984,0,1,0-3.967,0v7.129h-5.4V1.984a1.984,1.984,0,0,0-3.967,0V133.442a1.984,1.984,0,0,0,1.984,1.984H133.462a1.934,1.934,0,0,0,1.984-1.925A2.035,2.035,0,0,0,133.462,131.458Zm-72.031,0H43.717V83.986H61.431Zm30.338,0H74.056V69.838H91.769Z" transform="translate(-0.042)" fill="#fff"/>
      </g>
    </g>
  </g>
</svg>
