<svg xmlns="http://www.w3.org/2000/svg" width="33.08" height="33.08" viewBox="0 0 33.08 33.08"><defs><style>.a{fill:#fff;}</style></defs><g transform="translate(0 11.027)"><path class="a" d="M20.4,168.27h-.606a.543.543,0,0,1-.511-.356c-.067-.176-.139-.349-.217-.52a.544.544,0,0,1,.11-.615l.432-.433a1.658,1.658,0,0,0,0-2.337l-1.558-1.558a1.658,1.658,0,0,0-2.338,0l-.432.432a.546.546,0,0,1-.615.11c-.171-.078-.343-.15-.52-.221a.542.542,0,0,1-.358-.512v-.606A1.654,1.654,0,0,0,12.129,160H9.924a1.654,1.654,0,0,0-1.654,1.654v.606a.543.543,0,0,1-.356.511c-.176.067-.349.139-.52.217a.545.545,0,0,1-.615-.11l-.433-.432a1.658,1.658,0,0,0-2.337,0l-1.558,1.563a1.658,1.658,0,0,0,0,2.338l.432.432a.544.544,0,0,1,.11.615c-.078.171-.15.343-.218.52a.542.542,0,0,1-.514.356H1.654A1.654,1.654,0,0,0,0,169.924v2.205a1.654,1.654,0,0,0,1.654,1.654H2.26a.543.543,0,0,1,.511.356c.067.176.139.349.217.52a.544.544,0,0,1-.11.615l-.432.433a1.658,1.658,0,0,0,0,2.337L4,179.6a1.658,1.658,0,0,0,2.338,0l.432-.432a.546.546,0,0,1,.615-.11c.171.078.343.15.52.221a.542.542,0,0,1,.361.512v.606a1.654,1.654,0,0,0,1.654,1.654h2.205a1.654,1.654,0,0,0,1.654-1.654v-.606a.543.543,0,0,1,.356-.511c.176-.067.349-.139.52-.217a.545.545,0,0,1,.615.11l.433.432a1.658,1.658,0,0,0,2.337,0l1.558-1.558a1.658,1.658,0,0,0,0-2.338l-.432-.432a.544.544,0,0,1-.11-.615c.078-.171.15-.343.221-.52a.542.542,0,0,1,.512-.358H20.4a1.654,1.654,0,0,0,1.654-1.654v-2.205A1.654,1.654,0,0,0,20.4,168.27Zm.551,3.859a.551.551,0,0,1-.551.551h-.606a1.66,1.66,0,0,0-1.544,1.066q-.088.232-.19.456a1.659,1.659,0,0,0,.331,1.85l.431.432a.551.551,0,0,1,0,.78h0l-1.558,1.558a.551.551,0,0,1-.78,0l-.432-.432a1.657,1.657,0,0,0-1.85-.331c-.149.068-.3.131-.455.19a1.659,1.659,0,0,0-1.066,1.543v.606a.551.551,0,0,1-.551.551H9.924a.551.551,0,0,1-.551-.551v-.606a1.66,1.66,0,0,0-1.066-1.544q-.232-.088-.456-.19A1.66,1.66,0,0,0,6,178.39l-.432.431a.551.551,0,0,1-.78,0h0L3.23,177.265a.551.551,0,0,1,0-.78l.432-.432a1.659,1.659,0,0,0,.331-1.85c-.068-.149-.131-.3-.19-.455a1.659,1.659,0,0,0-1.543-1.067H1.654a.551.551,0,0,1-.551-.551v-2.205a.551.551,0,0,1,.551-.551H2.26A1.66,1.66,0,0,0,3.8,168.306q.088-.232.19-.456A1.659,1.659,0,0,0,3.663,166l-.433-.432a.551.551,0,0,1,0-.78h0l1.558-1.558a.551.551,0,0,1,.78,0l.432.432a1.657,1.657,0,0,0,1.85.331c.149-.068.3-.131.455-.19a1.659,1.659,0,0,0,1.068-1.543v-.606a.551.551,0,0,1,.551-.551h2.205a.551.551,0,0,1,.551.551v.606a1.66,1.66,0,0,0,1.066,1.544q.232.088.456.19a1.657,1.657,0,0,0,1.85-.331l.432-.431a.555.555,0,0,1,.78,0l1.558,1.558a.551.551,0,0,1,0,.78l-.432.432a1.659,1.659,0,0,0-.331,1.85c.068.149.131.3.19.455a1.659,1.659,0,0,0,1.543,1.066H20.4a.551.551,0,0,1,.551.551v2.205Z" transform="translate(0 -160)"/></g><g transform="translate(6.062 17.091)"><path class="a" d="M97.874,252.741c-.006-.132-.015-.264-.031-.4s-.039-.281-.068-.418c-.019-.09-.045-.179-.069-.268q-.046-.17-.1-.336c-.027-.077-.055-.153-.084-.228a4.909,4.909,0,0,0-.243-.516c-.007-.013-.012-.026-.019-.039a4.892,4.892,0,0,0-.5-.723c-.016-.02-.034-.039-.051-.058-.076-.09-.154-.177-.237-.26-.043-.045-.088-.087-.133-.13s-.11-.1-.165-.151-.135-.114-.2-.169l-.09-.067A4.927,4.927,0,0,0,92.923,248c-.055,0-.11.008-.165.01-.117,0-.235.01-.354.022-.062.007-.125.014-.187.023a5.053,5.053,0,0,0-.534.1,4.965,4.965,0,0,0,0,9.615.125.125,0,0,1,.028,0,5.264,5.264,0,0,0,.578.11c.128.016.257.019.386.025.086,0,.165.017.255.017.157,0,.32-.01.487-.027a.543.543,0,0,0,.055-.007c.134-.015.27-.035.408-.062.055-.01.106-.024.159-.036.1-.023.194-.046.293-.076.077-.023.152-.05.228-.077s.154-.055.232-.085.144-.064.215-.1c.093-.042.185-.084.276-.134h0a6.525,6.525,0,0,0,1.413-1.021,1.737,1.737,0,0,0,.3-.362,5.886,5.886,0,0,0,.83-2.266c.015-.106.029-.213.037-.321s.013-.2.015-.3c0-.031,0-.061,0-.093C97.885,252.888,97.878,252.816,97.874,252.741Zm-1.1.361c0,.046,0,.092-.007.137-.01.133-.027.267-.05.4a3.867,3.867,0,0,1-1.937,2.7c-.068.036-.136.069-.2.1l-.046.022a3.981,3.981,0,0,1-1.006.3l-.074.012c-.069.01-.137.018-.2.024-.089.008-.178.012-.269.014h-.115a3.853,3.853,0,0,1-.39-.024l-.066-.008a4.089,4.089,0,0,1-.45-.085,3.859,3.859,0,0,1,0-7.477h0a3.992,3.992,0,0,1,.969-.121,3.808,3.808,0,0,1,.471.032c.042,0,.083.013.125.019.119.019.237.042.353.072l.114.029a3.893,3.893,0,0,1,.841.354c.042.025.084.051.126.077.087.055.171.11.255.173.045.033.09.065.133.1a3.971,3.971,0,0,1,.31.276c.039.04.075.083.113.125.063.069.125.139.184.214.041.051.08.1.119.158.055.079.11.162.16.246l.083.137a3.782,3.782,0,0,1,.19.4c.022.055.041.11.061.165.036.1.067.2.094.308.014.055.029.1.041.158a3.888,3.888,0,0,1,.07.452c0,.04,0,.081.006.121C96.778,252.847,96.78,252.975,96.775,253.1Z" transform="translate(-87.959 -248)"/></g><g transform="translate(6.014)"><path class="a" d="M112.673,11.578h-1.734a.538.538,0,0,1-.514-.362,11.482,11.482,0,0,0-.619-1.495.54.54,0,0,1,.106-.622l1.229-1.231a1.654,1.654,0,0,0,0-2.338L108.8,3.189a1.654,1.654,0,0,0-2.338,0L105.23,4.418a.54.54,0,0,1-.622.106,11.454,11.454,0,0,0-1.5-.622.538.538,0,0,1-.364-.514V1.654A1.654,1.654,0,0,0,101.1,0H97.787a1.654,1.654,0,0,0-1.654,1.654V3.388a.538.538,0,0,1-.362.514,11.489,11.489,0,0,0-1.495.622.539.539,0,0,1-.622-.106L92.424,3.188a1.657,1.657,0,0,0-2.338,0l-2.34,2.34a1.654,1.654,0,0,0,0,2.339l1.808,1.811a.551.551,0,0,0,.781-.778L88.525,7.089a.551.551,0,0,1,0-.78l2.34-2.34a.551.551,0,0,1,.78,0L92.876,5.2a1.639,1.639,0,0,0,1.894.311,10.431,10.431,0,0,1,1.351-.562,1.64,1.64,0,0,0,1.114-1.56V1.654a.551.551,0,0,1,.551-.551H101.1a.551.551,0,0,1,.551.551V3.388a1.64,1.64,0,0,0,1.114,1.56,10.4,10.4,0,0,1,1.352.562,1.643,1.643,0,0,0,1.894-.311l1.232-1.229a.551.551,0,0,1,.78,0l2.34,2.34a.551.551,0,0,1,0,.779l-1.229,1.232a1.641,1.641,0,0,0-.311,1.894,10.43,10.43,0,0,1,.562,1.351,1.64,1.64,0,0,0,1.56,1.114h1.734a.551.551,0,0,1,.551.551V16.54a.551.551,0,0,1-.551.551h-1.734a1.64,1.64,0,0,0-1.56,1.114,10.389,10.389,0,0,1-.562,1.352,1.641,1.641,0,0,0,.311,1.894l1.229,1.232a.551.551,0,0,1,0,.78l-2.341,2.34a.551.551,0,0,1-.779,0l-1.812-1.808a.551.551,0,1,0-.792.767l.014.014,1.811,1.808a1.654,1.654,0,0,0,2.338,0l2.34-2.339a1.654,1.654,0,0,0,0-2.339l-1.228-1.23a.54.54,0,0,1-.106-.622,11.452,11.452,0,0,0,.622-1.5.538.538,0,0,1,.514-.364h1.734a1.654,1.654,0,0,0,1.654-1.654V13.232A1.654,1.654,0,0,0,112.673,11.578Z" transform="translate(-87.261)"/></g><g transform="translate(12.971 7.722)"><path class="a" d="M198.509,114.145a7.174,7.174,0,0,0-10.136,0,.551.551,0,0,0,.78.78,6.065,6.065,0,0,1,8.634,8.519l-.057.057a.551.551,0,1,0,.766.793l.014-.014A7.174,7.174,0,0,0,198.509,114.145Z" transform="translate(-188.219 -112.049)"/></g></svg>