<svg xmlns="http://www.w3.org/2000/svg" width="33" height="33" viewBox="0 0 33 33"><defs><style>.a{fill:#fff;}</style></defs><g transform="translate(-15.408 0)"><path class="a" d="M47.722,18.084H46.35V14.249A2.337,2.337,0,0,0,44.379,12l1.14-1.071a1.876,1.876,0,0,0,0-2.771L37.44.572a2.185,2.185,0,0,0-2.949,0L22.367,11.958h-4.52a2.371,2.371,0,0,0-2.439,2.291v16.46A2.371,2.371,0,0,0,17.847,33H43.912a2.371,2.371,0,0,0,2.439-2.291V26.873h1.372a.666.666,0,0,0,.686-.645v-7.5A.666.666,0,0,0,47.722,18.084ZM35.461,1.484a.748.748,0,0,1,1.01,0L44.55,9.071a.641.641,0,0,1,0,.947l-2.066,1.94h-2.4l.875-.822a.617.617,0,0,0,0-.912.921.921,0,0,1,0-1.361.617.617,0,0,0,0-.912L37.661,4.859a.717.717,0,0,0-.97,0,1.075,1.075,0,0,1-1.45,0,.717.717,0,0,0-.97,0l-7.56,7.1h-2.4Zm4.109,9.13-1.431,1.343H28.652l6.175-5.8a2.545,2.545,0,0,0,2.279,0L39.57,8.474a2.14,2.14,0,0,0,0,2.141ZM16.78,30.709V14.249a1.037,1.037,0,0,1,1.067-1h1.8V31.71h-1.8A1.037,1.037,0,0,1,16.78,30.709Zm28.2,0a1.037,1.037,0,0,1-1.067,1H21.022V13.247H43.912a1.037,1.037,0,0,1,1.067,1v3.836h-5.2A4.547,4.547,0,0,0,35.1,22.479a4.547,4.547,0,0,0,4.676,4.394h5.2Zm2.057-5.125H39.78a3.111,3.111,0,1,1,0-6.21h7.257Z"/><path class="a" d="M344.2,317.74a2.21,2.21,0,1,0,2.209-2.208A2.211,2.211,0,0,0,344.2,317.74Zm2.209-.879a.879.879,0,1,1-.88.879A.881.881,0,0,1,346.411,316.861Z" transform="translate(-306.362 -295.065)"/></g></svg>